<?xml version="1.0" encoding="UTF-8"?>
<!DOCTYPE svg PUBLIC "-//W3C//DTD SVG 1.1//EN" "http://www.w3.org/Graphics/SVG/1.1/DTD/svg11.dtd">
<!-- Creator: CorelDRAW X7 -->
<svg xmlns="http://www.w3.org/2000/svg" xml:space="preserve" width="60mm" height="60mm" version="1.1" style="shape-rendering:geometricPrecision; text-rendering:geometricPrecision; image-rendering:optimizeQuality; fill-rule:evenodd; clip-rule:evenodd"
viewBox="0 0 6000 6000"
 xmlns:xlink="http://www.w3.org/1999/xlink">
 <defs>
  <style type="text/css">
   <![CDATA[
    .fil1 {fill:#FEFEFE;fill-rule:nonzero}
    .fil0 {fill:#00A859;fill-rule:nonzero}
   ]]>
  </style>
 </defs>
 <g id="Camada_x0020_1">
  <metadata id="CorelCorpID_0Corel-Layer"/>
  <path class="fil0" d="M2984 145c773,0 1438,281 1993,840 557,560 835,1242 835,2047 0,798 -274,1473 -823,2025 -548,552 -1214,828 -1997,828 -821,0 -1502,-284 -2044,-851 -543,-567 -815,-1241 -815,-2021 0,-522 127,-1002 380,-1441 252,-438 600,-786 1041,-1042 443,-256 920,-385 1430,-385z"/>
  <path class="fil1" d="M2981 1020c537,0 999,195 1385,584 387,389 581,864 581,1423 0,555 -191,1024 -573,1407 -381,384 -844,576 -1388,576 -571,0 -1044,-197 -1421,-591 -377,-395 -566,-863 -566,-1405 0,-363 88,-697 264,-1002 175,-305 417,-546 724,-724 308,-179 639,-268 994,-268zm-11 709c-350,0 -644,123 -883,367 -239,245 -358,555 -358,933 0,419 150,752 451,996 234,192 501,287 803,287 342,0 633,-125 873,-372 240,-248 360,-553 360,-917 0,-361 -120,-667 -363,-918 -242,-250 -536,-376 -883,-376z"/>
 </g>
</svg>
